<svg width="26" height="26" viewBox="0 0 26 26" fill="none" xmlns="http://www.w3.org/2000/svg">
<path d="M13 6.5C12.1965 6.5 11.4111 6.73826 10.743 7.18466C10.0749 7.63105 9.55422 8.26552 9.24674 9.00785C8.93926 9.75017 8.85881 10.567 9.01556 11.3551C9.17231 12.1431 9.55923 12.867 10.1274 13.4351C10.6955 14.0033 11.4194 14.3902 12.2074 14.5469C12.9955 14.7037 13.8123 14.6232 14.5547 14.3158C15.297 14.0083 15.9315 13.4876 16.3778 12.8195C16.8242 12.1514 17.0625 11.366 17.0625 10.5625C17.0625 9.48506 16.6345 8.45175 15.8726 7.68988C15.1108 6.92801 14.0774 6.5 13 6.5ZM13 13C12.5179 13 12.0466 12.857 11.6458 12.5892C11.245 12.3214 10.9325 11.9407 10.748 11.4953C10.5636 11.0499 10.5153 10.5598 10.6093 10.087C10.7034 9.61414 10.9355 9.17982 11.2764 8.83893C11.6173 8.49804 12.0516 8.26589 12.5245 8.17184C12.9973 8.07778 13.4874 8.12606 13.9328 8.31054C14.3782 8.49503 14.7589 8.80745 15.0267 9.2083C15.2945 9.60914 15.4375 10.0804 15.4375 10.5625C15.4375 11.209 15.1807 11.829 14.7236 12.2861C14.2665 12.7432 13.6465 13 13 13ZM13 1.625C10.6305 1.62769 8.35873 2.57018 6.6832 4.2457C5.00768 5.92123 4.06519 8.19295 4.0625 10.5625C4.0625 13.7516 5.53617 17.1316 8.32812 20.3379C9.58265 21.7867 10.9946 23.0914 12.5379 24.2277C12.6745 24.3234 12.8373 24.3748 13.0041 24.3748C13.1709 24.3748 13.3336 24.3234 13.4702 24.2277C15.0107 23.0909 16.4199 21.7863 17.6719 20.3379C20.4598 17.1316 21.9375 13.7516 21.9375 10.5625C21.9348 8.19295 20.9923 5.92123 19.3168 4.2457C17.6413 2.57018 15.3695 1.62769 13 1.625ZM13 22.5469C11.3212 21.2266 5.6875 16.377 5.6875 10.5625C5.6875 8.6231 6.45792 6.76314 7.82928 5.39178C9.20064 4.02042 11.0606 3.25 13 3.25C14.9394 3.25 16.7994 4.02042 18.1707 5.39178C19.5421 6.76314 20.3125 8.6231 20.3125 10.5625C20.3125 16.3749 14.6788 21.2266 13 22.5469Z" fill="#353535"/>
</svg>
