<svg width="14" height="14" viewBox="0 0 14 14" fill="none" xmlns="http://www.w3.org/2000/svg">
<path d="M11.5911 4.95964H8.96615C8.81144 4.95964 8.66306 4.89818 8.55367 4.78878C8.44427 4.67938 8.38281 4.53101 8.38281 4.3763C8.38281 4.22159 8.44427 4.07322 8.55367 3.96382C8.66306 3.85443 8.81144 3.79297 8.96615 3.79297H11.0078V1.7513C11.0078 1.59659 11.0693 1.44822 11.1787 1.33882C11.2881 1.22943 11.4364 1.16797 11.5911 1.16797C11.7459 1.16797 11.8942 1.22943 12.0036 1.33882C12.113 1.44822 12.1745 1.59659 12.1745 1.7513V4.3763C12.1745 4.53101 12.113 4.67938 12.0036 4.78878C11.8942 4.89818 11.7459 4.95964 11.5911 4.95964Z" fill="#808080"/>
<path d="M7.00246 12.8346C5.97831 12.8355 4.97197 12.5668 4.08464 12.0554C3.1973 11.544 2.46024 10.808 1.94756 9.9214C1.43489 9.03481 1.16466 8.02887 1.16406 7.00472C1.16346 5.98057 1.43251 4.97431 1.94415 4.08712C2.45579 3.19993 3.19198 2.46308 4.07872 1.95065C4.96546 1.43822 5.97147 1.16828 6.99562 1.16797C8.01977 1.16766 9.02595 1.43699 9.913 1.94888C10.8 2.46076 11.5367 3.19717 12.0489 4.08405C12.1213 4.21756 12.1388 4.37406 12.0977 4.52028C12.0565 4.6665 11.96 4.7909 11.8285 4.86704C11.6971 4.94317 11.5411 4.96502 11.3938 4.92796C11.2465 4.89089 11.1195 4.79782 11.0397 4.66855C10.4723 3.69063 9.56881 2.95229 8.49747 2.59106C7.42614 2.22982 6.26002 2.27032 5.21632 2.705C4.17263 3.13969 3.32252 3.93893 2.82433 4.95385C2.32615 5.96877 2.21386 7.13018 2.50838 8.22174C2.80291 9.3133 3.48416 10.2606 4.42525 10.8872C5.36634 11.5138 6.5031 11.7769 7.62379 11.6276C8.74449 11.4783 9.77271 10.9267 10.5169 10.0756C11.2612 9.2245 11.6706 8.1319 11.6691 7.0013C11.6691 6.84659 11.7306 6.69822 11.84 6.58882C11.9494 6.47942 12.0977 6.41797 12.2525 6.41797C12.4072 6.41797 12.5555 6.47942 12.6649 6.58882C12.7743 6.69822 12.8358 6.84659 12.8358 7.0013C12.8342 8.54792 12.2192 10.0308 11.1255 11.1244C10.0319 12.218 8.54908 12.8331 7.00246 12.8346Z" fill="#808080"/>
</svg>
