<svg width="48" height="48" viewBox="0 0 48 48" fill="none" xmlns="http://www.w3.org/2000/svg">
<g clip-path="url(#clip0_1281_11919)">
<path d="M24 45.3333C20.4638 45.3333 17.0724 43.9285 14.5719 41.4281C12.0714 38.9276 10.6667 35.5362 10.6667 32V16C10.6667 12.4637 12.0714 9.07235 14.5719 6.57187C17.0724 4.07138 20.4638 2.66663 24 2.66663C27.5362 2.66663 30.9276 4.07138 33.4281 6.57187C35.9286 9.07235 37.3333 12.4637 37.3333 16V32C37.3333 33.7509 36.9885 35.4847 36.3184 37.1024C35.6483 38.7201 34.6662 40.1899 33.4281 41.4281C32.19 42.6662 30.7201 43.6483 29.1024 44.3184C27.4848 44.9884 25.751 45.3333 24 45.3333ZM24 5.33329C21.171 5.33329 18.4579 6.4571 16.4575 8.45749C14.4571 10.4579 13.3333 13.171 13.3333 16V32C13.3333 34.8289 14.4571 37.542 16.4575 39.5424C18.4579 41.5428 21.171 42.6666 24 42.6666C26.829 42.6666 29.5421 41.5428 31.5425 39.5424C33.5429 37.542 34.6667 34.8289 34.6667 32V16C34.6667 13.171 33.5429 10.4579 31.5425 8.45749C29.5421 6.4571 26.829 5.33329 24 5.33329Z" fill="white" fill-opacity="0.6"/>
<path d="M24 20C23.6464 20 23.3072 19.8595 23.0572 19.6095C22.8071 19.3594 22.6667 19.0203 22.6667 18.6667V13.3333C22.6667 12.9797 22.8071 12.6406 23.0572 12.3905C23.3072 12.1405 23.6464 12 24 12C24.3536 12 24.6928 12.1405 24.9428 12.3905C25.1929 12.6406 25.3333 12.9797 25.3333 13.3333V18.6667C25.3333 19.0203 25.1929 19.3594 24.9428 19.6095C24.6928 19.8595 24.3536 20 24 20Z" fill="white" fill-opacity="0.6"/>
</g>
<defs>
<clipPath id="clip0_1281_11919">
<rect width="48" height="48" fill="white"/>
</clipPath>
</defs>
</svg>
