<svg width="24" height="24" viewBox="0 0 24 24" fill="none" xmlns="http://www.w3.org/2000/svg">
<path d="M0 4.80002C0 3.48002 1.08 2.40002 2.4 2.40002H21.6C22.2365 2.40002 22.847 2.65288 23.2971 3.10297C23.7471 3.55306 24 4.1635 24 4.80002V19.2C24 19.8365 23.7471 20.447 23.2971 20.8971C22.847 21.3472 22.2365 21.6 21.6 21.6H2.4C1.76348 21.6 1.15303 21.3472 0.702944 20.8971C0.252856 20.447 0 19.8365 0 19.2V4.80002ZM13.2 15.6L9.6 12L2.4 19.2H21.6L15.6 13.2L13.2 15.6ZM18 10.8C18.6365 10.8 19.247 10.5472 19.6971 10.0971C20.1471 9.64699 20.4 9.03654 20.4 8.40002C20.4 7.76351 20.1471 7.15306 19.6971 6.70297C19.247 6.25288 18.6365 6.00002 18 6.00002C17.3635 6.00002 16.753 6.25288 16.3029 6.70297C15.8529 7.15306 15.6 7.76351 15.6 8.40002C15.6 9.03654 15.8529 9.64699 16.3029 10.0971C16.753 10.5472 17.3635 10.8 18 10.8Z" fill="white"/>
</svg>
