<svg width="50" height="50" viewBox="0 0 50 50" fill="none" xmlns="http://www.w3.org/2000/svg">
<rect width="50" height="50" rx="25" fill="#F2F2F2"/>
<path d="M25.0837 30.4583L25.0003 30.5417L24.9087 30.4583C20.9503 26.8667 18.3337 24.4917 18.3337 22.0833C18.3337 20.4167 19.5837 19.1667 21.2503 19.1667C22.5337 19.1667 23.7837 20 24.2253 21.1333H25.7753C26.217 20 27.467 19.1667 28.7503 19.1667C30.417 19.1667 31.667 20.4167 31.667 22.0833C31.667 24.4917 29.0503 26.8667 25.0837 30.4583ZM28.7503 17.5C27.3003 17.5 25.9087 18.175 25.0003 19.2333C24.092 18.175 22.7003 17.5 21.2503 17.5C18.6837 17.5 16.667 19.5083 16.667 22.0833C16.667 25.225 19.5003 27.8 23.792 31.6917L25.0003 32.7917L26.2087 31.6917C30.5003 27.8 33.3337 25.225 33.3337 22.0833C33.3337 19.5083 31.317 17.5 28.7503 17.5Z" fill="#646464"/>
</svg>
