<svg width="30" height="28" viewBox="0 0 30 28" fill="none" xmlns="http://www.w3.org/2000/svg">
<path d="M15.0403 2.95597e-06C16.9761 -0.000146703 18.8902 0.390099 20.6574 1.14523C22.4246 1.90037 24.0052 3.00339 25.2958 4.38221C26.5864 5.76103 27.558 7.38461 28.1471 9.14682C28.7362 10.909 28.9295 12.7702 28.7144 14.6087H18.0212C18.7805 13.8978 19.3009 12.9869 19.5162 11.9922C19.7315 10.9975 19.6319 9.96402 19.2301 9.02363C18.8283 8.08323 18.1425 7.27852 17.2601 6.71213C16.3778 6.14574 15.3389 5.84333 14.276 5.84348H3.59961C4.85572 4.04459 6.55725 2.56997 8.55308 1.55057C10.5489 0.531175 12.7773 -0.00144786 15.0403 2.95597e-06Z" fill="#FF7F50"/>
<path d="M7.3915 12.1738C6.65009 12.9255 6.13592 13.8842 5.91163 14.933C5.68734 15.9818 5.76262 17.0755 6.1283 18.0808C6.49398 19.0861 7.13426 19.9596 7.97114 20.5949C8.80802 21.2303 9.80536 21.5999 10.8417 21.6589L11.1367 21.6668H26.4002C24.7122 24.2837 22.2343 26.2483 19.3536 27.2536C16.4729 28.2589 13.3515 28.2483 10.4772 27.2235C7.60292 26.1987 5.1375 24.2175 3.4661 21.5892C1.79469 18.9609 1.01144 15.8336 1.2387 12.6959L1.28456 12.1738H7.3915Z" fill="#42BDCC"/>
<path d="M14.2499 7.30421C15.2249 7.3018 16.1624 7.6846 16.8638 8.37147C17.5653 9.05833 17.9754 9.99527 18.0074 10.9837C18.0394 11.9721 17.6907 12.9343 17.0352 13.6664C16.3797 14.3985 15.4689 14.8428 14.4959 14.9053L14.2499 14.9129H11.2496C11.0621 14.9125 10.8814 14.9834 10.7429 15.1115C10.6043 15.2396 10.5181 15.4157 10.5012 15.605C10.4843 15.7944 10.5378 15.9833 10.6514 16.1346C10.7649 16.2859 10.9301 16.3886 11.1146 16.4225L11.2496 16.4346H28.5015C28.8839 16.4351 29.2516 16.5836 29.5297 16.8498C29.8077 17.1161 29.975 17.48 29.9974 17.8672C30.0198 18.2544 29.8956 18.6356 29.6502 18.9331C29.4048 19.2305 29.0567 19.4216 28.677 19.4674L28.5015 19.4781H11.2496C10.2746 19.4805 9.3371 19.0977 8.63567 18.4108C7.93424 17.724 7.52406 16.787 7.49207 15.7986C7.46007 14.8102 7.80878 13.848 8.46429 13.1159C9.11979 12.3839 10.0306 11.9395 11.0036 11.877L11.2496 11.8694H14.2499C14.4374 11.8698 14.6181 11.7989 14.7566 11.6708C14.8952 11.5427 14.9814 11.3667 14.9983 11.1773C15.0153 10.9879 14.9617 10.799 14.8482 10.6477C14.7346 10.4964 14.5694 10.3937 14.3849 10.3599L14.2499 10.3477H1.4985C1.11614 10.3473 0.748373 10.1987 0.470338 9.93248C0.192303 9.66622 0.0249885 9.30232 0.00258034 8.91513C-0.0198278 8.52794 0.104362 8.14667 0.349774 7.84925C0.595187 7.55182 0.943299 7.36067 1.32298 7.31486L1.4985 7.30421H14.2499Z" fill="#FCFCFC"/>
</svg>
