<svg width="50" height="50" viewBox="0 0 50 50" fill="none" xmlns="http://www.w3.org/2000/svg">
<rect width="50" height="50" rx="25" fill="#F2F2F2"/>
<path d="M29.167 33.3333C28.4725 33.3333 27.8823 33.0902 27.3962 32.6041C26.91 32.118 26.667 31.5277 26.667 30.8333C26.667 30.75 26.6878 30.5555 26.7295 30.25L20.8753 26.8333C20.6531 27.0416 20.3962 27.205 20.1045 27.3233C19.8128 27.4416 19.5003 27.5005 19.167 27.5C18.4725 27.5 17.8823 27.2569 17.3962 26.7708C16.91 26.2847 16.667 25.6944 16.667 25C16.667 24.3055 16.91 23.7152 17.3962 23.2291C17.8823 22.743 18.4725 22.5 19.167 22.5C19.5003 22.5 19.8128 22.5591 20.1045 22.6775C20.3962 22.7958 20.6531 22.9588 20.8753 23.1666L26.7295 19.75C26.7017 19.6527 26.6845 19.5591 26.6778 19.4691C26.6712 19.3791 26.6675 19.2783 26.667 19.1666C26.667 18.4722 26.91 17.8819 27.3962 17.3958C27.8823 16.9097 28.4725 16.6666 29.167 16.6666C29.8614 16.6666 30.4517 16.9097 30.9378 17.3958C31.4239 17.8819 31.667 18.4722 31.667 19.1666C31.667 19.8611 31.4239 20.4513 30.9378 20.9375C30.4517 21.4236 29.8614 21.6666 29.167 21.6666C28.8337 21.6666 28.5212 21.6075 28.2295 21.4891C27.9378 21.3708 27.6809 21.2077 27.4587 21L21.6045 24.4166C21.6323 24.5138 21.6498 24.6077 21.657 24.6983C21.6642 24.7888 21.6675 24.8894 21.667 25C21.6664 25.1105 21.6631 25.2113 21.657 25.3025C21.6509 25.3936 21.6334 25.4872 21.6045 25.5833L27.4587 29C27.6809 28.7916 27.9378 28.6286 28.2295 28.5108C28.5212 28.393 28.8337 28.3338 29.167 28.3333C29.8614 28.3333 30.4517 28.5763 30.9378 29.0625C31.4239 29.5486 31.667 30.1388 31.667 30.8333C31.667 31.5277 31.4239 32.118 30.9378 32.6041C30.4517 33.0902 29.8614 33.3333 29.167 33.3333Z" fill="#646464"/>
</svg>
