<svg width="22" height="22" viewBox="0 0 22 22" fill="none" xmlns="http://www.w3.org/2000/svg">
<path d="M2.0625 17.875V13.0625C2.06465 12.3338 2.35508 11.6356 2.87034 11.1203C3.38559 10.6051 4.08382 10.3147 4.8125 10.3125H17.1875C17.9162 10.3147 18.6144 10.6051 19.1297 11.1203C19.6449 11.6356 19.9353 12.3338 19.9375 13.0625V17.875M16.5 10.3125H4.125V5.84375C4.12636 5.38833 4.30788 4.95195 4.62991 4.62991C4.95195 4.30788 5.38833 4.12636 5.84375 4.125H16.1562C16.6117 4.12636 17.0481 4.30788 17.3701 4.62991C17.6921 4.95195 17.8736 5.38833 17.875 5.84375V10.3125H16.5Z" stroke="#828282" stroke-width="1.2" stroke-linecap="round" stroke-linejoin="round"/>
<path d="M2.0625 17.875V17.5312C2.06329 17.258 2.1722 16.9961 2.36542 16.8029C2.55865 16.6097 2.82049 16.5008 3.09375 16.5H18.9062C19.1795 16.5008 19.4414 16.6097 19.6346 16.8029C19.8278 16.9961 19.9367 17.258 19.9375 17.5312V17.875M4.8125 10.3125V9.625C4.81352 9.26064 4.95871 8.9115 5.21636 8.65386C5.474 8.39621 5.82314 8.25102 6.1875 8.25H9.625C9.98936 8.25102 10.3385 8.39621 10.5961 8.65386C10.8538 8.9115 10.999 9.26064 11 9.625M11 9.625V10.3125M11 9.625C11.001 9.26064 11.1462 8.9115 11.4039 8.65386C11.6615 8.39621 12.0106 8.25102 12.375 8.25H15.8125C16.1769 8.25102 16.526 8.39621 16.7836 8.65386C17.0413 8.9115 17.1865 9.26064 17.1875 9.625V10.3125" stroke="#828282" stroke-width="1.2" stroke-linecap="round" stroke-linejoin="round"/>
</svg>
