<svg width="22" height="22" viewBox="0 0 22 22" fill="none" xmlns="http://www.w3.org/2000/svg">
<mask id="path-1-inside-1_1559_648" fill="white">
<path d="M4.95039 7.42501C4.95039 6.7686 5.21115 6.13907 5.6753 5.67492C6.13945 5.21076 6.76898 4.95001 7.42539 4.95001C8.0818 4.95001 8.71133 5.21076 9.17548 5.67492C9.63963 6.13907 9.90039 6.7686 9.90039 7.42501C9.90039 8.08142 9.63963 8.71094 9.17548 9.1751C8.71133 9.63925 8.0818 9.90001 7.42539 9.90001C6.76898 9.90001 6.13945 9.63925 5.6753 9.1751C5.21115 8.71094 4.95039 8.08142 4.95039 7.42501ZM7.42539 3.85001C6.47724 3.85001 5.56793 4.22666 4.89748 4.8971C4.22704 5.56754 3.85039 6.47686 3.85039 7.42501C3.85039 8.37316 4.22704 9.28247 4.89748 9.95291C5.56793 10.6234 6.47724 11 7.42539 11C8.37354 11 9.28285 10.6234 9.9533 9.95291C10.6237 9.28247 11.0004 8.37316 11.0004 7.42501C11.0004 6.47686 10.6237 5.56754 9.9533 4.8971C9.28285 4.22666 8.37354 3.85001 7.42539 3.85001ZM13.6811 16.6595C14.2729 16.9015 15.0176 17.05 15.9504 17.05C18.0195 17.05 19.1635 16.3152 19.7663 15.4726C20.0815 15.0308 20.2787 14.5159 20.3394 13.9766C20.3448 13.9265 20.3485 13.8763 20.3504 13.8259V13.75C20.3504 13.5333 20.3077 13.3188 20.2248 13.1186C20.1419 12.9184 20.0203 12.7365 19.8671 12.5833C19.7139 12.4301 19.532 12.3085 19.3318 12.2256C19.1316 12.1427 18.9171 12.1 18.7004 12.1H13.6074C13.8714 12.419 14.0694 12.7919 14.1849 13.2H18.7004C18.8463 13.2 18.9862 13.258 19.0893 13.3611C19.1924 13.4642 19.2504 13.6041 19.2504 13.75V13.8094L19.2449 13.8644C19.2036 14.2134 19.075 14.5463 18.8709 14.8324C18.5112 15.3373 17.7302 15.95 15.9504 15.95C15.1452 15.95 14.5446 15.8246 14.0947 15.6409C14.0045 15.9489 13.8736 16.2965 13.6811 16.6595ZM1.65039 14.3C1.65039 13.7165 1.88218 13.157 2.29476 12.7444C2.70734 12.3318 3.26691 12.1 3.85039 12.1H11.0004C11.5839 12.1 12.1434 12.3318 12.556 12.7444C12.9686 13.157 13.2004 13.7165 13.2004 14.3V14.3924L13.1982 14.4364L13.1872 14.5849C13.1092 15.2978 12.856 15.9803 12.4502 16.5715C11.6791 17.688 10.1897 18.7 7.42539 18.7C4.66109 18.7 3.17169 17.688 2.40059 16.5726C1.99458 15.9811 1.74138 15.2982 1.66359 14.5849C1.65732 14.5209 1.65291 14.4567 1.65039 14.3924V14.3ZM2.75039 14.366V14.3858L2.75809 14.4771C2.81778 15.0044 3.00588 15.509 3.30589 15.9467C3.84159 16.7211 4.96469 17.6 7.42539 17.6C9.88609 17.6 11.0092 16.7211 11.5449 15.9467C11.8449 15.509 12.033 15.0044 12.0927 14.4771C12.0971 14.4353 12.0993 14.4049 12.0993 14.3858L12.1004 14.3671V14.3C12.1004 14.0083 11.9845 13.7285 11.7782 13.5222C11.5719 13.3159 11.2921 13.2 11.0004 13.2H3.85039C3.55865 13.2 3.27886 13.3159 3.07257 13.5222C2.86628 13.7285 2.75039 14.0083 2.75039 14.3V14.366ZM14.3004 8.25001C14.3004 7.8124 14.4742 7.39271 14.7837 7.08328C15.0931 6.77384 15.5128 6.60001 15.9504 6.60001C16.388 6.60001 16.8077 6.77384 17.1171 7.08328C17.4266 7.39271 17.6004 7.8124 17.6004 8.25001C17.6004 8.68761 17.4266 9.1073 17.1171 9.41673C16.8077 9.72617 16.388 9.90001 15.9504 9.90001C15.5128 9.90001 15.0931 9.72617 14.7837 9.41673C14.4742 9.1073 14.3004 8.68761 14.3004 8.25001ZM15.9504 5.50001C15.221 5.50001 14.5216 5.78974 14.0058 6.30546C13.4901 6.82119 13.2004 7.52066 13.2004 8.25001C13.2004 8.97935 13.4901 9.67882 14.0058 10.1946C14.5216 10.7103 15.221 11 15.9504 11C16.6797 11 17.3792 10.7103 17.8949 10.1946C18.4107 9.67882 18.7004 8.97935 18.7004 8.25001C18.7004 7.52066 18.4107 6.82119 17.8949 6.30546C17.3792 5.78974 16.6797 5.50001 15.9504 5.50001Z"/>
</mask>
<path d="M4.95039 7.42501C4.95039 6.7686 5.21115 6.13907 5.6753 5.67492C6.13945 5.21076 6.76898 4.95001 7.42539 4.95001C8.0818 4.95001 8.71133 5.21076 9.17548 5.67492C9.63963 6.13907 9.90039 6.7686 9.90039 7.42501C9.90039 8.08142 9.63963 8.71094 9.17548 9.1751C8.71133 9.63925 8.0818 9.90001 7.42539 9.90001C6.76898 9.90001 6.13945 9.63925 5.6753 9.1751C5.21115 8.71094 4.95039 8.08142 4.95039 7.42501ZM7.42539 3.85001C6.47724 3.85001 5.56793 4.22666 4.89748 4.8971C4.22704 5.56754 3.85039 6.47686 3.85039 7.42501C3.85039 8.37316 4.22704 9.28247 4.89748 9.95291C5.56793 10.6234 6.47724 11 7.42539 11C8.37354 11 9.28285 10.6234 9.9533 9.95291C10.6237 9.28247 11.0004 8.37316 11.0004 7.42501C11.0004 6.47686 10.6237 5.56754 9.9533 4.8971C9.28285 4.22666 8.37354 3.85001 7.42539 3.85001ZM13.6811 16.6595C14.2729 16.9015 15.0176 17.05 15.9504 17.05C18.0195 17.05 19.1635 16.3152 19.7663 15.4726C20.0815 15.0308 20.2787 14.5159 20.3394 13.9766C20.3448 13.9265 20.3485 13.8763 20.3504 13.8259V13.75C20.3504 13.5333 20.3077 13.3188 20.2248 13.1186C20.1419 12.9184 20.0203 12.7365 19.8671 12.5833C19.7139 12.4301 19.532 12.3085 19.3318 12.2256C19.1316 12.1427 18.9171 12.1 18.7004 12.1H13.6074C13.8714 12.419 14.0694 12.7919 14.1849 13.2H18.7004C18.8463 13.2 18.9862 13.258 19.0893 13.3611C19.1924 13.4642 19.2504 13.6041 19.2504 13.75V13.8094L19.2449 13.8644C19.2036 14.2134 19.075 14.5463 18.8709 14.8324C18.5112 15.3373 17.7302 15.95 15.9504 15.95C15.1452 15.95 14.5446 15.8246 14.0947 15.6409C14.0045 15.9489 13.8736 16.2965 13.6811 16.6595ZM1.65039 14.3C1.65039 13.7165 1.88218 13.157 2.29476 12.7444C2.70734 12.3318 3.26691 12.1 3.85039 12.1H11.0004C11.5839 12.1 12.1434 12.3318 12.556 12.7444C12.9686 13.157 13.2004 13.7165 13.2004 14.3V14.3924L13.1982 14.4364L13.1872 14.5849C13.1092 15.2978 12.856 15.9803 12.4502 16.5715C11.6791 17.688 10.1897 18.7 7.42539 18.7C4.66109 18.7 3.17169 17.688 2.40059 16.5726C1.99458 15.9811 1.74138 15.2982 1.66359 14.5849C1.65732 14.5209 1.65291 14.4567 1.65039 14.3924V14.3ZM2.75039 14.366V14.3858L2.75809 14.4771C2.81778 15.0044 3.00588 15.509 3.30589 15.9467C3.84159 16.7211 4.96469 17.6 7.42539 17.6C9.88609 17.6 11.0092 16.7211 11.5449 15.9467C11.8449 15.509 12.033 15.0044 12.0927 14.4771C12.0971 14.4353 12.0993 14.4049 12.0993 14.3858L12.1004 14.3671V14.3C12.1004 14.0083 11.9845 13.7285 11.7782 13.5222C11.5719 13.3159 11.2921 13.2 11.0004 13.2H3.85039C3.55865 13.2 3.27886 13.3159 3.07257 13.5222C2.86628 13.7285 2.75039 14.0083 2.75039 14.3V14.366ZM14.3004 8.25001C14.3004 7.8124 14.4742 7.39271 14.7837 7.08328C15.0931 6.77384 15.5128 6.60001 15.9504 6.60001C16.388 6.60001 16.8077 6.77384 17.1171 7.08328C17.4266 7.39271 17.6004 7.8124 17.6004 8.25001C17.6004 8.68761 17.4266 9.1073 17.1171 9.41673C16.8077 9.72617 16.388 9.90001 15.9504 9.90001C15.5128 9.90001 15.0931 9.72617 14.7837 9.41673C14.4742 9.1073 14.3004 8.68761 14.3004 8.25001ZM15.9504 5.50001C15.221 5.50001 14.5216 5.78974 14.0058 6.30546C13.4901 6.82119 13.2004 7.52066 13.2004 8.25001C13.2004 8.97935 13.4901 9.67882 14.0058 10.1946C14.5216 10.7103 15.221 11 15.9504 11C16.6797 11 17.3792 10.7103 17.8949 10.1946C18.4107 9.67882 18.7004 8.97935 18.7004 8.25001C18.7004 7.52066 18.4107 6.82119 17.8949 6.30546C17.3792 5.78974 16.6797 5.50001 15.9504 5.50001Z" fill="black"/>
<path d="M4.95039 7.42501H3.75039H4.95039ZM7.42539 4.95001V3.75001V4.95001ZM7.42539 3.85001V2.65001V3.85001ZM3.85039 7.42501H2.65039H3.85039ZM7.42539 11V12.2V11ZM11.0004 7.42501H9.80039H11.0004ZM13.6811 16.6595L12.6209 16.0973L11.9999 17.2685L13.2269 17.7702L13.6811 16.6595ZM19.7663 15.4726L20.7423 16.1708L20.7432 16.1695L19.7663 15.4726ZM20.3394 13.9766L21.5319 14.1108L21.5325 14.105L20.3394 13.9766ZM20.3504 13.8259L21.5495 13.8721L21.5504 13.849V13.8259H20.3504ZM13.6074 12.1V10.9H11.0566L12.6829 12.8651L13.6074 12.1ZM14.1849 13.2L13.0302 13.5268L13.2774 14.4H14.1849V13.2ZM19.2504 13.8094L20.4444 13.9288L20.4504 13.8692V13.8094H19.2504ZM19.2449 13.8644L20.4366 14.0055L20.4379 13.9946L20.4389 13.9838L19.2449 13.8644ZM18.8709 14.8324L17.8939 14.1356L17.8935 14.1361L18.8709 14.8324ZM14.0947 15.6409L14.5483 14.5299L13.3169 14.0271L12.9431 15.3036L14.0947 15.6409ZM3.85039 12.1V13.3V12.1ZM13.2004 14.3924L14.3989 14.4523L14.4004 14.4224V14.3924H13.2004ZM13.1982 14.4364L14.3949 14.5251L14.396 14.5107L14.3967 14.4963L13.1982 14.4364ZM13.1872 14.5849L14.3801 14.7154L14.3824 14.6945L14.3839 14.6736L13.1872 14.5849ZM12.4502 16.5715L13.4376 17.2534L13.4395 17.2506L12.4502 16.5715ZM2.40059 16.5726L1.4112 17.2517L1.4135 17.255L2.40059 16.5726ZM1.66359 14.5849L0.469242 14.702L0.470664 14.715L1.66359 14.5849ZM1.65039 14.3924H0.450391V14.4159L0.451314 14.4395L1.65039 14.3924ZM2.75039 14.3858H1.55039V14.4363L1.55464 14.4867L2.75039 14.3858ZM2.75809 14.4771L1.56234 14.578L1.56378 14.595L1.56571 14.6121L2.75809 14.4771ZM3.30589 15.9467L2.31607 16.6252L2.31901 16.6294L3.30589 15.9467ZM11.5449 15.9467L12.5318 16.6294L12.5347 16.6251L11.5449 15.9467ZM12.0927 14.4771L13.2851 14.6121L13.2861 14.6027L12.0927 14.4771ZM12.0993 14.3858L10.9014 14.3153L10.8993 14.3505V14.3858H12.0993ZM12.1004 14.3671L13.2983 14.4376L13.3004 14.4024V14.3671H12.1004ZM2.75039 14.3H1.55039H2.75039ZM14.3004 8.25001H13.1004H14.3004ZM15.9504 6.60001V5.40001V6.60001ZM17.6004 8.25001H18.8004H17.6004ZM15.9504 9.90001V11.1V9.90001ZM15.9504 5.50001V4.30001V5.50001ZM4.95039 7.42501H6.15039C6.15039 7.08686 6.28472 6.76255 6.52383 6.52345L5.6753 5.67492L4.82677 4.82639C4.13758 5.51558 3.75039 6.45034 3.75039 7.42501H4.95039ZM5.6753 5.67492L6.52383 6.52345C6.76294 6.28434 7.08724 6.15001 7.42539 6.15001V4.95001V3.75001C6.45072 3.75001 5.51597 4.13719 4.82677 4.82639L5.6753 5.67492ZM7.42539 4.95001V6.15001C7.76354 6.15001 8.08784 6.28434 8.32695 6.52345L9.17548 5.67492L10.024 4.82639C9.33481 4.13719 8.40006 3.75001 7.42539 3.75001V4.95001ZM9.17548 5.67492L8.32695 6.52345C8.56606 6.76255 8.70039 7.08686 8.70039 7.42501H9.90039H11.1004C11.1004 6.45034 10.7132 5.51558 10.024 4.82639L9.17548 5.67492ZM9.90039 7.42501H8.70039C8.70039 7.76316 8.56606 8.08746 8.32695 8.32657L9.17548 9.1751L10.024 10.0236C10.7132 9.33443 11.1004 8.39968 11.1004 7.42501H9.90039ZM9.17548 9.1751L8.32695 8.32657C8.08784 8.56568 7.76354 8.70001 7.42539 8.70001V9.90001V11.1C8.40006 11.1 9.33481 10.7128 10.024 10.0236L9.17548 9.1751ZM7.42539 9.90001V8.70001C7.08724 8.70001 6.76294 8.56568 6.52383 8.32657L5.6753 9.1751L4.82677 10.0236C5.51597 10.7128 6.45072 11.1 7.42539 11.1V9.90001ZM5.6753 9.1751L6.52383 8.32657C6.28472 8.08746 6.15039 7.76316 6.15039 7.42501H4.95039H3.75039C3.75039 8.39968 4.13758 9.33443 4.82677 10.0236L5.6753 9.1751ZM7.42539 3.85001V2.65001C6.15898 2.65001 4.94444 3.15308 4.04896 4.04857L4.89748 4.8971L5.74601 5.74563C6.19141 5.30023 6.7955 5.05001 7.42539 5.05001V3.85001ZM4.89748 4.8971L4.04896 4.04857C3.15347 4.94406 2.65039 6.1586 2.65039 7.42501H3.85039H5.05039C5.05039 6.79512 5.30061 6.19103 5.74601 5.74563L4.89748 4.8971ZM3.85039 7.42501H2.65039C2.65039 8.69141 3.15347 9.90595 4.04896 10.8014L4.89748 9.95291L5.74601 9.10438C5.30061 8.65899 5.05039 8.0549 5.05039 7.42501H3.85039ZM4.89748 9.95291L4.04896 10.8014C4.94444 11.6969 6.15898 12.2 7.42539 12.2V11V9.80001C6.7955 9.80001 6.19141 9.54978 5.74601 9.10438L4.89748 9.95291ZM7.42539 11V12.2C8.6918 12.2 9.90634 11.6969 10.8018 10.8014L9.9533 9.95291L9.10477 9.10438C8.65937 9.54978 8.05528 9.80001 7.42539 9.80001V11ZM9.9533 9.95291L10.8018 10.8014C11.6973 9.90595 12.2004 8.69142 12.2004 7.42501H11.0004H9.80039C9.80039 8.05489 9.55017 8.65899 9.10477 9.10438L9.9533 9.95291ZM11.0004 7.42501H12.2004C12.2004 6.1586 11.6973 4.94406 10.8018 4.04857L9.9533 4.8971L9.10477 5.74563C9.55017 6.19103 9.80039 6.79512 9.80039 7.42501H11.0004ZM9.9533 4.8971L10.8018 4.04857C9.90634 3.15308 8.6918 2.65001 7.42539 2.65001V3.85001V5.05001C8.05528 5.05001 8.65937 5.30023 9.10477 5.74563L9.9533 4.8971ZM13.6811 16.6595L13.2269 17.7702C13.9876 18.0813 14.891 18.25 15.9504 18.25V17.05V15.85C15.1442 15.85 14.5582 15.7217 14.1353 15.5488L13.6811 16.6595ZM15.9504 17.05V18.25C18.3345 18.25 19.8752 17.3828 20.7423 16.1708L19.7663 15.4726L18.7903 14.7744C18.4518 15.2476 17.7044 15.85 15.9504 15.85V17.05ZM19.7663 15.4726L20.7432 16.1695C21.1769 15.5615 21.4484 14.8529 21.5319 14.1108L20.3394 13.9766L19.1469 13.8425C19.1091 14.1789 18.986 14.5001 18.7894 14.7757L19.7663 15.4726ZM20.3394 13.9766L21.5325 14.105C21.5408 14.0276 21.5465 13.9499 21.5495 13.8721L20.3504 13.8259L19.1513 13.7797C19.1504 13.8026 19.1487 13.8254 19.1463 13.8482L20.3394 13.9766ZM20.3504 13.8259H21.5504V13.75H20.3504H19.1504V13.8259H20.3504ZM20.3504 13.75H21.5504C21.5504 13.3757 21.4767 13.0051 21.3334 12.6594L20.2248 13.1186L19.1161 13.5778C19.1388 13.6324 19.1504 13.6909 19.1504 13.75H20.3504ZM20.2248 13.1186L21.3334 12.6594C21.1902 12.3136 20.9803 11.9994 20.7156 11.7348L19.8671 12.5833L19.0186 13.4318C19.0604 13.4736 19.0935 13.5232 19.1161 13.5778L20.2248 13.1186ZM19.8671 12.5833L20.7156 11.7348C20.451 11.4701 20.1368 11.2602 19.791 11.1169L19.3318 12.2256L18.8726 13.3343C18.9272 13.3569 18.9768 13.39 19.0186 13.4318L19.8671 12.5833ZM19.3318 12.2256L19.791 11.1169C19.4453 10.9737 19.0747 10.9 18.7004 10.9V12.1V13.3C18.7595 13.3 18.818 13.3116 18.8726 13.3343L19.3318 12.2256ZM18.7004 12.1V10.9H13.6074V12.1V13.3H18.7004V12.1ZM13.6074 12.1L12.6829 12.8651C12.8417 13.0569 12.9606 13.2809 13.0302 13.5268L14.1849 13.2L15.3395 12.8732C15.1781 12.3029 14.9011 11.7811 14.5319 11.3349L13.6074 12.1ZM14.1849 13.2V14.4H18.7004V13.2V12H14.1849V13.2ZM18.7004 13.2V14.4C18.528 14.4 18.3627 14.3315 18.2408 14.2096L19.0893 13.3611L19.9378 12.5126C19.6096 12.1844 19.1645 12 18.7004 12V13.2ZM19.0893 13.3611L18.2408 14.2096C18.1189 14.0877 18.0504 13.9224 18.0504 13.75H19.2504H20.4504C20.4504 13.2859 20.266 12.8408 19.9378 12.5126L19.0893 13.3611ZM19.2504 13.75H18.0504V13.8094H19.2504H20.4504V13.75H19.2504ZM19.2504 13.8094L18.0563 13.69L18.0508 13.745L19.2449 13.8644L20.4389 13.9838L20.4444 13.9288L19.2504 13.8094ZM19.2449 13.8644L18.0532 13.7234C18.0356 13.872 17.9808 14.0137 17.8939 14.1356L18.8709 14.8324L19.8478 15.5292C20.1691 15.0789 20.3716 14.5548 20.4366 14.0055L19.2449 13.8644ZM18.8709 14.8324L17.8935 14.1361C17.7978 14.2705 17.4142 14.75 15.9504 14.75V15.95V17.15C18.0462 17.15 19.2246 16.4041 19.8482 15.5287L18.8709 14.8324ZM15.9504 15.95V14.75C15.2687 14.75 14.8273 14.6438 14.5483 14.5299L14.0947 15.6409L13.6411 16.7519C14.2619 17.0054 15.0217 17.15 15.9504 17.15V15.95ZM14.0947 15.6409L12.9431 15.3036C12.8724 15.5449 12.7703 15.8156 12.6209 16.0973L13.6811 16.6595L14.7412 17.2217C14.9768 16.7774 15.1366 16.3529 15.2463 15.9782L14.0947 15.6409ZM1.65039 14.3H2.85039C2.85039 14.0348 2.95575 13.7804 3.14328 13.5929L2.29476 12.7444L1.44623 11.8958C0.808604 12.5335 0.450391 13.3983 0.450391 14.3H1.65039ZM2.29476 12.7444L3.14328 13.5929C3.33082 13.4054 3.58517 13.3 3.85039 13.3V12.1V10.9C2.94865 10.9 2.08385 11.2582 1.44623 11.8958L2.29476 12.7444ZM3.85039 12.1V13.3H11.0004V12.1V10.9H3.85039V12.1ZM11.0004 12.1V13.3C11.2656 13.3 11.52 13.4054 11.7075 13.5929L12.556 12.7444L13.4046 11.8958C12.7669 11.2582 11.9021 10.9 11.0004 10.9V12.1ZM12.556 12.7444L11.7075 13.5929C11.895 13.7804 12.0004 14.0348 12.0004 14.3H13.2004H14.4004C14.4004 13.3983 14.0422 12.5335 13.4046 11.8958L12.556 12.7444ZM13.2004 14.3H12.0004V14.3924H13.2004H14.4004V14.3H13.2004ZM13.2004 14.3924L12.0019 14.3325L11.9997 14.3765L13.1982 14.4364L14.3967 14.4963L14.3989 14.4523L13.2004 14.3924ZM13.1982 14.4364L12.0015 14.3478L11.9905 14.4963L13.1872 14.5849L14.3839 14.6736L14.3949 14.5251L13.1982 14.4364ZM13.1872 14.5849L11.9943 14.4544C11.9379 14.9704 11.7546 15.4644 11.4608 15.8924L12.4502 16.5715L13.4395 17.2506C13.9575 16.4961 14.2806 15.6251 14.3801 14.7154L13.1872 14.5849ZM12.4502 16.5715L11.4628 15.8896C10.9495 16.6328 9.85878 17.5 7.42539 17.5V18.7V19.9C10.5206 19.9 12.4087 18.7432 13.4376 17.2534L12.4502 16.5715ZM7.42539 18.7V17.5C4.99199 17.5 3.90102 16.6328 3.38768 15.8902L2.40059 16.5726L1.4135 17.255C2.44236 18.7432 4.33019 19.9 7.42539 19.9V18.7ZM2.40059 16.5726L3.38997 15.8935C3.09609 15.4654 2.91282 14.9711 2.85652 14.4548L1.66359 14.5849L0.470664 14.715C0.569932 15.6252 0.893064 16.4967 1.41121 17.2517L2.40059 16.5726ZM1.66359 14.5849L2.85787 14.4678C2.85387 14.4271 2.85107 14.3863 2.84947 14.3453L1.65039 14.3924L0.451314 14.4395C0.454754 14.5271 0.460756 14.6147 0.469314 14.702L1.66359 14.5849ZM1.65039 14.3924H2.85039V14.3H1.65039H0.450391V14.3924H1.65039ZM2.75039 14.366H1.55039V14.3858H2.75039H3.95039V14.366H2.75039ZM2.75039 14.3858L1.55464 14.4867L1.56234 14.578L2.75809 14.4771L3.95385 14.3763L3.94615 14.285L2.75039 14.3858ZM2.75809 14.4771L1.56571 14.6121C1.64747 15.3344 1.90512 16.0256 2.31608 16.6251L3.30589 15.9467L4.2957 15.2683C4.10663 14.9924 3.98809 14.6744 3.95047 14.3421L2.75809 14.4771ZM3.30589 15.9467L2.31901 16.6294C3.11152 17.775 4.63195 18.8 7.42539 18.8V17.6V16.4C5.29743 16.4 4.57167 15.6672 4.29277 15.264L3.30589 15.9467ZM7.42539 17.6V18.8C10.2188 18.8 11.7393 17.775 12.5318 16.6294L11.5449 15.9467L10.558 15.264C10.2791 15.6672 9.55335 16.4 7.42539 16.4V17.6ZM11.5449 15.9467L12.5347 16.6251C12.9457 16.0256 13.2033 15.3344 13.2851 14.6121L12.0927 14.4771L10.9003 14.3421C10.8627 14.6744 10.7442 14.9924 10.5551 15.2683L11.5449 15.9467ZM12.0927 14.4771L13.2861 14.6027C13.291 14.5565 13.2993 14.4725 13.2993 14.3858H12.0993H10.8993C10.8993 14.3685 10.8998 14.3556 10.9001 14.349C10.9004 14.3419 10.9007 14.3375 10.9008 14.3364C10.9009 14.3348 10.9006 14.3391 10.8993 14.3515L12.0927 14.4771ZM12.0993 14.3858L13.2972 14.4563L13.2983 14.4376L12.1004 14.3671L10.9025 14.2966L10.9014 14.3153L12.0993 14.3858ZM12.1004 14.3671H13.3004V14.3H12.1004H10.9004V14.3671H12.1004ZM12.1004 14.3H13.3004C13.3004 13.69 13.0581 13.105 12.6267 12.6737L11.7782 13.5222L10.9297 14.3707C10.9109 14.352 10.9004 14.3265 10.9004 14.3H12.1004ZM11.7782 13.5222L12.6267 12.6737C12.1954 12.2423 11.6104 12 11.0004 12V13.2V14.4C10.9739 14.4 10.9484 14.3895 10.9297 14.3707L11.7782 13.5222ZM11.0004 13.2V12H3.85039V13.2V14.4H11.0004V13.2ZM3.85039 13.2V12C3.24039 12 2.65538 12.2423 2.22404 12.6737L3.07257 13.5222L3.9211 14.3707C3.90235 14.3895 3.87691 14.4 3.85039 14.4V13.2ZM3.07257 13.5222L2.22404 12.6737C1.79271 13.105 1.55039 13.69 1.55039 14.3H2.75039H3.95039C3.95039 14.3265 3.93985 14.352 3.9211 14.3707L3.07257 13.5222ZM2.75039 14.3H1.55039V14.366H2.75039H3.95039V14.3H2.75039ZM14.3004 8.25001H15.5004C15.5004 8.13066 15.5478 8.0162 15.6322 7.93181L14.7837 7.08328L13.9351 6.23475C13.4007 6.76923 13.1004 7.49414 13.1004 8.25001H14.3004ZM14.7837 7.08328L15.6322 7.93181C15.7166 7.84742 15.831 7.80001 15.9504 7.80001V6.60001V5.40001C15.1945 5.40001 14.4696 5.70027 13.9351 6.23475L14.7837 7.08328ZM15.9504 6.60001V7.80001C16.0697 7.80001 16.1842 7.84742 16.2686 7.93181L17.1171 7.08328L17.9656 6.23475C17.4312 5.70027 16.7063 5.40001 15.9504 5.40001V6.60001ZM17.1171 7.08328L16.2686 7.93181C16.353 8.0162 16.4004 8.13066 16.4004 8.25001H17.6004H18.8004C18.8004 7.49414 18.5001 6.76923 17.9656 6.23475L17.1171 7.08328ZM17.6004 8.25001H16.4004C16.4004 8.36935 16.353 8.48381 16.2686 8.5682L17.1171 9.41673L17.9656 10.2653C18.5001 9.73078 18.8004 9.00587 18.8004 8.25001H17.6004ZM17.1171 9.41673L16.2686 8.5682C16.1842 8.6526 16.0697 8.70001 15.9504 8.70001V9.90001V11.1C16.7063 11.1 17.4312 10.7997 17.9656 10.2653L17.1171 9.41673ZM15.9504 9.90001V8.70001C15.831 8.70001 15.7166 8.6526 15.6322 8.5682L14.7837 9.41673L13.9351 10.2653C14.4696 10.7997 15.1945 11.1 15.9504 11.1V9.90001ZM14.7837 9.41673L15.6322 8.5682C15.5478 8.48381 15.5004 8.36935 15.5004 8.25001H14.3004H13.1004C13.1004 9.00587 13.4007 9.73078 13.9351 10.2653L14.7837 9.41673ZM15.9504 5.50001V4.30001C14.9028 4.30001 13.8981 4.71617 13.1573 5.45693L14.0058 6.30546L14.8544 7.15399C15.1451 6.86331 15.5393 6.70001 15.9504 6.70001V5.50001ZM14.0058 6.30546L13.1573 5.45693C12.4166 6.1977 12.0004 7.2024 12.0004 8.25001H13.2004H14.4004C14.4004 7.83892 14.5637 7.44467 14.8544 7.15399L14.0058 6.30546ZM13.2004 8.25001H12.0004C12.0004 9.29761 12.4166 10.3023 13.1573 11.0431L14.0058 10.1946L14.8544 9.34602C14.5637 9.05534 14.4004 8.66109 14.4004 8.25001H13.2004ZM14.0058 10.1946L13.1573 11.0431C13.8981 11.7838 14.9028 12.2 15.9504 12.2V11V9.80001C15.5393 9.80001 15.1451 9.6367 14.8544 9.34602L14.0058 10.1946ZM15.9504 11V12.2C16.998 12.2 18.0027 11.7838 18.7435 11.0431L17.8949 10.1946L17.0464 9.34602C16.7557 9.6367 16.3615 9.80001 15.9504 9.80001V11ZM17.8949 10.1946L18.7435 11.0431C19.4842 10.3023 19.9004 9.29761 19.9004 8.25001H18.7004H17.5004C17.5004 8.66109 17.3371 9.05534 17.0464 9.34602L17.8949 10.1946ZM18.7004 8.25001H19.9004C19.9004 7.2024 19.4842 6.1977 18.7435 5.45693L17.8949 6.30546L17.0464 7.15399C17.3371 7.44467 17.5004 7.83892 17.5004 8.25001H18.7004ZM17.8949 6.30546L18.7435 5.45693C18.0027 4.71617 16.998 4.30001 15.9504 4.30001V5.50001V6.70001C16.3615 6.70001 16.7557 6.86331 17.0464 7.15399L17.8949 6.30546Z" fill="#828282" mask="url(#path-1-inside-1_1559_648)"/>
</svg>
