<svg width="24" height="24" viewBox="0 0 24 24" fill="none" xmlns="http://www.w3.org/2000/svg">
<path d="M2.5 20.462V19.423C3.018 19.359 3.432 19.189 3.742 18.913C4.05267 18.6377 4.59767 18.5 5.377 18.5C6.15633 18.5 6.734 18.6667 7.11 19C7.486 19.3333 8.01233 19.5 8.689 19.5C9.36567 19.5 9.89167 19.3333 10.267 19C10.6423 18.6667 11.22 18.5 12 18.5C12.78 18.5 13.364 18.6667 13.752 19C14.14 19.3333 14.6727 19.5 15.35 19.5C16.0273 19.5 16.5473 19.3333 16.91 19C17.2727 18.6667 17.8437 18.5 18.623 18.5C19.4023 18.5 19.9473 18.638 20.258 18.914C20.5687 19.19 20.9827 19.3597 21.5 19.423V20.462C20.9013 20.3847 20.4287 20.205 20.082 19.923C19.7353 19.641 19.249 19.5 18.623 19.5C17.997 19.5 17.503 19.6667 17.141 20C16.7777 20.3333 16.1807 20.5 15.35 20.5C14.5193 20.5 13.9097 20.3333 13.521 20C13.133 19.6667 12.626 19.5 12 19.5C11.374 19.5 10.8733 19.6667 10.498 20C10.1227 20.3333 9.51933 20.5 8.688 20.5C7.85667 20.5 7.25333 20.3333 6.878 20C6.50333 19.6667 6.003 19.5 5.377 19.5C4.751 19.5 4.26467 19.641 3.918 19.923C3.57133 20.205 3.09867 20.3847 2.5 20.462ZM2.5 15.962V14.923C3.018 14.859 3.432 14.689 3.742 14.413C4.05267 14.1377 4.59767 14 5.377 14C6.15633 14 6.735 14.1667 7.113 14.5C7.491 14.8333 8.01633 15 8.689 15C9.36567 15 9.89167 14.8333 10.267 14.5C10.6423 14.1667 11.22 14 12 14C12.78 14 13.3577 14.1667 13.733 14.5C14.1083 14.8333 14.6343 15 15.311 15C15.9877 15 16.5143 14.8333 16.891 14.5C17.2663 14.1667 17.8437 14 18.623 14C19.4023 14 19.9473 14.138 20.258 14.414C20.5687 14.69 20.9827 14.8597 21.5 14.923V15.961C20.9013 15.8843 20.4287 15.705 20.082 15.423C19.7353 15.141 19.249 15 18.623 15C17.997 15 17.5057 15.1667 17.149 15.5C16.7923 15.8333 16.1927 16 15.35 16C14.5153 16 13.9047 15.8333 13.518 15.5C13.1313 15.1667 12.6253 15 12 15C11.3667 15 10.867 15.1667 10.501 15.5C10.135 15.8333 9.531 16 8.689 16C7.847 16 7.24067 15.8333 6.87 15.5C6.49933 15.1667 6.00167 15 5.377 15C4.75233 15 4.266 15.141 3.918 15.423C3.57 15.705 3.09733 15.8847 2.5 15.962ZM16.43 3.692C17.0153 3.692 17.5143 3.89967 17.927 4.315C18.3403 4.72967 18.547 5.22733 18.547 5.808C18.547 6.39267 18.3403 6.89133 17.927 7.304C17.5137 7.71667 17.015 7.923 16.431 7.923C15.847 7.923 15.348 7.71633 14.934 7.303C14.522 6.891 14.316 6.39267 14.316 5.808C14.316 5.22733 14.522 4.72967 14.934 4.315C15.3473 3.89967 15.8453 3.692 16.43 3.692ZM8.669 11.5C8.48567 11.5 8.32467 11.4717 8.186 11.415C8.04733 11.3583 7.91367 11.2763 7.785 11.169L11.014 7.94L9.475 6.402L5.738 4.885V3.5L10.392 5.346L16.216 11.169C16.086 11.2757 15.952 11.3573 15.814 11.414C15.6753 11.4713 15.5143 11.5 15.331 11.5C14.8843 11.5 14.4443 11.3333 14.011 11C13.5777 10.6667 12.9073 10.5 12 10.5C11.0927 10.5 10.4223 10.6667 9.989 11C9.55567 11.3333 9.11567 11.5 8.669 11.5Z" fill="#1E1E1E"/>
</svg>
