<svg width="24" height="24" viewBox="0 0 24 24" fill="none" xmlns="http://www.w3.org/2000/svg">
<path d="M7.7998 2.40002C7.64067 2.40002 7.48806 2.46324 7.37554 2.57576C7.26302 2.68828 7.1998 2.84089 7.1998 3.00002C7.1998 3.15915 7.26302 3.31177 7.37554 3.42429C7.48806 3.53681 7.64067 3.60002 7.7998 3.60002H8.3998V4.80002H7.7998C7.00416 4.80002 6.24109 5.11609 5.67848 5.6787C5.11588 6.24131 4.7998 7.00437 4.7998 7.80002V17.4C4.79966 18.0916 5.03847 18.762 5.47582 19.2978C5.91317 19.8335 6.52219 20.2017 7.1998 20.34V21C7.1998 21.1592 7.26302 21.3118 7.37554 21.4243C7.48806 21.5368 7.64067 21.6 7.7998 21.6C7.95893 21.6 8.11155 21.5368 8.22407 21.4243C8.33659 21.3118 8.3998 21.1592 8.3998 21V20.4H15.5998V21C15.5998 21.1592 15.663 21.3118 15.7755 21.4243C15.8881 21.5368 16.0407 21.6 16.1998 21.6C16.3589 21.6 16.5115 21.5368 16.6241 21.4243C16.7366 21.3118 16.7998 21.1592 16.7998 21V20.34C17.4774 20.2017 18.0864 19.8335 18.5238 19.2978C18.9611 18.762 19.1999 18.0916 19.1998 17.4V7.80002C19.1998 7.00437 18.8837 6.24131 18.3211 5.6787C17.7585 5.11609 16.9955 4.80002 16.1998 4.80002H15.5998V3.60002H16.1998C16.3589 3.60002 16.5115 3.53681 16.6241 3.42429C16.7366 3.31177 16.7998 3.15915 16.7998 3.00002C16.7998 2.84089 16.7366 2.68828 16.6241 2.57576C16.5115 2.46324 16.3589 2.40002 16.1998 2.40002H7.7998ZM14.3998 3.60002V4.80002H9.5998V3.60002H14.3998ZM7.7998 6.00002H16.1998C16.6772 6.00002 17.135 6.18967 17.4726 6.52723C17.8102 6.8648 17.9998 7.32263 17.9998 7.80002V17.4C17.9998 17.8774 17.8102 18.3353 17.4726 18.6728C17.135 19.0104 16.6772 19.2 16.1998 19.2H7.7998C7.32241 19.2 6.86458 19.0104 6.52701 18.6728C6.18945 18.3353 5.9998 17.8774 5.9998 17.4V7.80002C5.9998 7.32263 6.18945 6.8648 6.52701 6.52723C6.86458 6.18967 7.32241 6.00002 7.7998 6.00002ZM7.7998 10.2C7.7998 10.0409 7.86302 9.88828 7.97554 9.77576C8.08806 9.66324 8.24067 9.60002 8.3998 9.60002H15.5998C15.7589 9.60002 15.9115 9.66324 16.0241 9.77576C16.1366 9.88828 16.1998 10.0409 16.1998 10.2C16.1998 10.3592 16.1366 10.5118 16.0241 10.6243C15.9115 10.7368 15.7589 10.8 15.5998 10.8H8.3998C8.24067 10.8 8.08806 10.7368 7.97554 10.6243C7.86302 10.5118 7.7998 10.3592 7.7998 10.2Z" fill="#1E1E1E"/>
</svg>
