<svg width="24" height="24" viewBox="0 0 24 24" fill="none" xmlns="http://www.w3.org/2000/svg">
<path d="M14.2503 3C14.0514 3 13.8606 3.07902 13.72 3.21967C13.5793 3.36032 13.5003 3.55109 13.5003 3.75V5.25C13.5003 5.44891 13.5793 5.63968 13.72 5.78033C13.8606 5.92098 14.0514 6 14.2503 6C14.4492 6 14.64 5.92098 14.7807 5.78033C14.9213 5.63968 15.0003 5.44891 15.0003 5.25C15.0003 5.05109 15.0793 4.86032 15.22 4.71967C15.3606 4.57902 15.5514 4.5 15.7503 4.5C15.9492 4.5 16.14 4.57902 16.2807 4.71967C16.4213 4.86032 16.5003 5.05109 16.5003 5.25C16.5005 5.62092 16.409 5.98613 16.2339 6.31312C16.0588 6.64012 15.8055 6.91875 15.4967 7.12423C15.1879 7.3297 14.8331 7.45565 14.4639 7.49085C14.0946 7.52605 13.7224 7.46942 13.3803 7.326C13.2491 8.51357 12.9412 9.67488 12.4668 10.7715C11.8503 12.18 11.0403 13.185 10.3098 13.9995C9.78783 14.583 9.45033 15.42 9.25083 16.416C9.05133 17.406 9.00033 18.4875 9.00033 19.5C9.00033 19.9545 8.83533 20.5035 8.53533 21H14.8728C14.7167 20.5617 14.429 20.1824 14.0491 19.9139C13.6692 19.6454 13.2156 19.5008 12.7503 19.5H12.0003C11.8014 19.5 11.6106 19.421 11.47 19.2803C11.3293 19.1397 11.2503 18.9489 11.2503 18.75C11.2503 18.5511 11.3293 18.3603 11.47 18.2197C11.6106 18.079 11.8014 18 12.0003 18H12.7503C13.0073 18 13.2573 18.025 13.5003 18.075V15.75C13.5003 15.5511 13.5793 15.3603 13.72 15.2197C13.8606 15.079 14.0514 15 14.2503 15C14.4492 15 14.64 15.079 14.7807 15.2197C14.9213 15.3603 15.0003 15.5511 15.0003 15.75V18.75C15.7203 19.29 16.2393 20.085 16.4253 21H19.3728C19.2177 20.5611 18.9302 20.1812 18.5501 19.9125C18.1699 19.6439 17.7158 19.4998 17.2503 19.5C17.0514 19.5 16.8606 19.421 16.72 19.2803C16.5793 19.1397 16.5003 18.9489 16.5003 18.75V8.25C16.5003 8.05109 16.5793 7.86032 16.72 7.71967C16.8606 7.57902 17.0514 7.5 17.2503 7.5H18.7503C18.9492 7.5 19.14 7.42098 19.2807 7.28033C19.4213 7.13968 19.5003 6.94891 19.5003 6.75V5.349C19.5004 5.21939 19.4668 5.09198 19.4029 4.9792C19.339 4.86642 19.247 4.77212 19.1358 4.7055L16.4703 3.1065C16.3538 3.03676 16.2206 2.99995 16.0848 3H14.2503ZM6.00033 21C6.47133 21 6.83433 20.772 7.10283 20.4375C7.38783 20.079 7.50033 19.677 7.50033 19.5C7.50033 18.45 7.55283 17.2545 7.77933 16.1205C8.00583 14.9955 8.41983 13.863 9.19083 13.0005C9.87633 12.2355 10.5678 11.3655 11.0958 10.167C11.6193 8.9715 12.0003 7.407 12.0003 5.25V3.75C12.0003 3.15326 12.2374 2.58097 12.6593 2.15901C13.0813 1.73705 13.6536 1.5 14.2503 1.5H16.0848C16.4928 1.50004 16.8931 1.611 17.2428 1.821L19.9083 3.42C20.2414 3.61992 20.517 3.90266 20.7084 4.2407C20.8997 4.57873 21.0003 4.96056 21.0003 5.349V6.75C21.0003 7.34674 20.7633 7.91903 20.3413 8.34099C19.9194 8.76295 19.3471 9 18.7503 9H18.0003V18.075C18.8474 18.2479 19.6086 18.7081 20.1553 19.3778C20.702 20.0475 21.0005 20.8855 21.0003 21.75C21.0003 21.9489 20.9213 22.1397 20.7807 22.2803C20.64 22.421 20.4492 22.5 20.2503 22.5H5.62533C4.74015 22.5003 3.87836 22.2158 3.1673 21.6886C2.45624 21.1614 1.93361 20.4195 1.67665 19.5725C1.41969 18.7254 1.44203 17.8181 1.74036 16.9848C2.03869 16.1514 2.59718 15.4361 3.33333 14.9445C3.41512 14.8877 3.50741 14.8477 3.60481 14.827C3.70222 14.8062 3.80278 14.8051 3.90063 14.8236C3.99848 14.8421 4.09167 14.8799 4.17475 14.9348C4.25783 14.9897 4.32914 15.0607 4.38452 15.1434C4.4399 15.2262 4.47824 15.3192 4.49731 15.4169C4.51637 15.5147 4.51578 15.6152 4.49556 15.7128C4.47534 15.8103 4.4359 15.9028 4.37955 15.9849C4.32319 16.067 4.25105 16.1371 4.16733 16.191C3.69848 16.5036 3.34268 16.9588 3.15255 17.4893C2.96241 18.0198 2.94803 18.5973 3.11153 19.1366C3.27503 19.6759 3.60773 20.1482 4.06043 20.4838C4.51313 20.8194 5.06181 21.0004 5.62533 21H6.00033Z" fill="#1E1E1E"/>
</svg>
