<svg width="24" height="24" viewBox="0 0 24 24" fill="none" xmlns="http://www.w3.org/2000/svg">
<path d="M7.50045 9.23001V3.00001C7.50045 2.85801 7.54845 2.73934 7.64445 2.64401C7.74045 2.54867 7.85945 2.50067 8.00145 2.50001C8.14345 2.49934 8.26211 2.54734 8.35745 2.64401C8.45278 2.74067 8.50045 2.85934 8.50045 3.00001V9.23001H10.2704V3.00001C10.2704 2.85801 10.3181 2.73934 10.4134 2.64401C10.5094 2.54801 10.6284 2.50001 10.7704 2.50001C10.9124 2.50001 11.0311 2.54801 11.1264 2.64401C11.2218 2.74001 11.2694 2.85867 11.2694 3.00001V9.23001C11.2694 10.0873 11.0011 10.8113 10.4644 11.402C9.92778 11.9927 9.27311 12.3473 8.50045 12.466V21C8.50045 21.142 8.45245 21.2607 8.35645 21.356C8.26045 21.4513 8.14145 21.4993 7.99945 21.5C7.85745 21.5007 7.73878 21.4527 7.64345 21.356C7.54811 21.2593 7.50045 21.1407 7.50045 21V12.466C6.72711 12.348 6.07211 11.9933 5.53545 11.402C4.99945 10.8113 4.73145 10.0877 4.73145 9.23101V3.00001C4.73145 2.85801 4.77945 2.73934 4.87545 2.64401C4.97145 2.54867 5.09045 2.50067 5.23245 2.50001C5.37445 2.49934 5.49311 2.54734 5.58845 2.64401C5.68378 2.74067 5.73111 2.85934 5.73045 3.00001V9.23001H7.50045ZM16.7304 13.5H15.0804C14.8464 13.5 14.6528 13.4227 14.4994 13.268C14.3461 13.1133 14.2694 12.9213 14.2694 12.692V7.00001C14.2694 5.65334 14.5671 4.56667 15.1624 3.74001C15.7584 2.91334 16.3481 2.50001 16.9314 2.50001C17.1928 2.50001 17.3914 2.58467 17.5274 2.75401C17.6634 2.92334 17.7314 3.15334 17.7314 3.44401V21C17.7314 21.142 17.6834 21.2607 17.5874 21.356C17.4914 21.452 17.3724 21.5 17.2304 21.5C17.0884 21.5 16.9698 21.452 16.8744 21.356C16.7791 21.26 16.7314 21.1413 16.7314 21L16.7304 13.5Z" fill="#1E1E1E"/>
</svg>
