<svg width="24" height="24" viewBox="0 0 24 24" fill="none" xmlns="http://www.w3.org/2000/svg">
<path d="M20.5717 12C21.2888 12.372 21.9005 12.9189 22.35 13.5902C22.7995 14.2614 23.0723 15.0353 23.1431 15.84C23.1431 19.1486 18.1546 21.84 12.0003 21.84C5.84599 21.84 0.857422 19.1657 0.857422 15.8571C0.925477 15.0494 1.19699 14.272 1.64663 13.5976C2.09628 12.9231 2.70941 12.3735 3.42885 12" stroke="#1E1E1E" stroke-width="1.71429" stroke-linecap="round" stroke-linejoin="round"/>
<path d="M6.99463 3.85717C3.56605 8.14288 10.4232 9.85717 6.99463 14.1429M12.0003 2.14288C8.57177 6.4286 15.4289 11.5715 12.0003 15.8572M17.0061 3.85717C13.5775 8.14288 20.4346 9.85717 17.0061 14.1429" stroke="#1E1E1E" stroke-width="1.71429" stroke-linecap="round" stroke-linejoin="round"/>
</svg>
