<svg width="24" height="24" viewBox="0 0 24 24" fill="none" xmlns="http://www.w3.org/2000/svg">
<path d="M18 4.5C18.6 4.49823 19.1942 4.61645 19.7478 4.84771C20.3014 5.07896 20.8032 5.41858 21.2236 5.8466C21.644 6.27461 21.9746 6.78237 22.1959 7.34001C22.4172 7.89766 22.5248 8.49393 22.5123 9.09376C22.4998 9.69358 22.3675 10.2849 22.1231 10.8328C21.8787 11.3807 21.5273 11.8743 21.0894 12.2844C20.6515 12.6945 20.136 13.0129 19.5733 13.2209C19.0105 13.4289 18.4119 13.5223 17.8125 13.4955C17.4802 14.7845 16.7289 15.9265 15.6767 16.7419C14.6245 17.5573 13.3312 17.9999 12 18H7.5C5.9087 18 4.38258 17.3679 3.25736 16.2426C2.13214 15.1174 1.5 13.5913 1.5 12V3.75C1.5 3.55109 1.57902 3.36032 1.71967 3.21967C1.86032 3.07902 2.05109 3 2.25 3H17.25C17.4489 3 17.6397 3.07902 17.7803 3.21967C17.921 3.36032 18 3.55109 18 3.75V4.5ZM18 6V12C18.7956 12 19.5587 11.6839 20.1213 11.1213C20.6839 10.5587 21 9.79565 21 9C21 8.20435 20.6839 7.44129 20.1213 6.87868C19.5587 6.31607 18.7956 6 18 6ZM2.25 19.5H17.25C17.4489 19.5 17.6397 19.579 17.7803 19.7197C17.921 19.8603 18 20.0511 18 20.25C18 20.4489 17.921 20.6397 17.7803 20.7803C17.6397 20.921 17.4489 21 17.25 21H2.25C2.05109 21 1.86032 20.921 1.71967 20.7803C1.57902 20.6397 1.5 20.4489 1.5 20.25C1.5 20.0511 1.57902 19.8603 1.71967 19.7197C1.86032 19.579 2.05109 19.5 2.25 19.5ZM3 4.5V12C3 13.1935 3.47411 14.3381 4.31802 15.182C5.16193 16.0259 6.30653 16.5 7.5 16.5H12C13.1935 16.5 14.3381 16.0259 15.182 15.182C16.0259 14.3381 16.5 13.1935 16.5 12V4.5H3Z" fill="#1E1E1E"/>
</svg>
