<svg width="24" height="24" viewBox="0 0 24 24" fill="none" xmlns="http://www.w3.org/2000/svg">
<path d="M8.5 14.5L5 22M8 6C8 6 9 4.939 9 4C9 2.667 8 2 8 2M12 6C12 6 13 4.939 13 4C13 2.667 12 2 12 2M16 6C16 6 17 4.939 17 4C17 2.667 16 2 16 2" stroke="#1E1E1E" stroke-width="1.5" stroke-linecap="round" stroke-linejoin="round"/>
<path d="M16.5 17.5H7.5" stroke="#1E1E1E" stroke-width="1.5" stroke-linejoin="round"/>
<path d="M15.5 14.5L17.6 19M18.5 22C18.8978 22 19.2794 21.842 19.5607 21.5607C19.842 21.2794 20 20.8978 20 20.5C20 20.1022 19.842 19.7206 19.5607 19.4393C19.2794 19.158 18.8978 19 18.5 19C18.1022 19 17.7206 19.158 17.4393 19.4393C17.158 19.7206 17 20.1022 17 20.5C17 20.8978 17.158 21.2794 17.4393 21.5607C17.7206 21.842 18.1022 22 18.5 22Z" stroke="#1E1E1E" stroke-width="1.5" stroke-linecap="round" stroke-linejoin="round"/>
<path d="M11.9997 15C13.7524 15.0002 15.4415 14.3428 16.733 13.1578C18.0245 11.9728 18.8244 10.3463 18.9747 8.6C18.9798 8.522 18.9687 8.44377 18.9419 8.3703C18.9152 8.29684 18.8735 8.22975 18.8194 8.1733C18.7653 8.11686 18.7 8.0723 18.6278 8.04246C18.5555 8.01263 18.4778 7.99817 18.3997 8H5.59966C5.52151 7.99817 5.44383 8.01263 5.37156 8.04246C5.2993 8.0723 5.23405 8.11686 5.17996 8.1733C5.12587 8.22975 5.08412 8.29684 5.05739 8.3703C5.03065 8.44377 5.01951 8.522 5.02466 8.6C5.1749 10.3463 5.97483 11.9728 7.26632 13.1578C8.55781 14.3428 10.2469 15.0002 11.9997 15Z" stroke="#1E1E1E" stroke-width="1.5"/>
</svg>
