<svg width="24" height="24" viewBox="0 0 24 24" fill="none" xmlns="http://www.w3.org/2000/svg">
<path d="M17.0004 11.805C17.0004 11.459 17.0004 11.286 17.0524 11.132C17.2034 10.684 17.6024 10.511 18.0024 10.329C18.4504 10.124 18.6744 10.022 18.8974 10.004C19.1494 9.984 19.4024 10.038 19.6184 10.159C19.9044 10.319 20.1044 10.625 20.3084 10.873C21.2514 12.019 21.7234 12.592 21.8954 13.223C22.0354 13.733 22.0354 14.267 21.8954 14.776C21.6444 15.698 20.8494 16.47 20.2604 17.186C19.9594 17.551 19.8084 17.734 19.6184 17.841C19.3987 17.9628 19.1478 18.0168 18.8974 17.996C18.6744 17.978 18.4504 17.876 18.0014 17.671C17.6014 17.489 17.2034 17.316 17.0524 16.868C17.0004 16.714 17.0004 16.541 17.0004 16.196V11.805ZM7.0004 11.805C7.0004 11.369 6.9884 10.978 6.6364 10.672C6.5084 10.561 6.3384 10.484 5.9994 10.329C5.5504 10.125 5.3264 10.022 5.1034 10.004C4.4364 9.95 4.0774 10.406 3.6934 10.874C2.7494 12.019 2.2774 12.592 2.1044 13.224C1.9652 13.7323 1.9652 14.2687 2.1044 14.777C2.3564 15.698 3.1524 16.471 3.7404 17.186C4.1114 17.636 4.4664 18.047 5.1034 17.996C5.3264 17.978 5.5504 17.876 5.9994 17.671C6.3394 17.517 6.5084 17.439 6.6364 17.328C6.9884 17.022 7.0004 16.631 7.0004 16.196V11.805Z" stroke="#1E1E1E" stroke-width="1.5"/>
<path d="M20 10.5V9C20 5.134 16.418 2 12 2C7.582 2 4 5.134 4 9V10.5M20 17.5C20 22 16 22 12 22" stroke="#1E1E1E" stroke-width="1.5" stroke-linecap="round" stroke-linejoin="round"/>
</svg>
